<svg width="180" height="56" viewBox="0 0 180 56" fill="none" xmlns="http://www.w3.org/2000/svg">
<mask id="path-1-inside-1_1_80" fill="white">
<path fill-rule="evenodd" clip-rule="evenodd" d="M102.213 12.0001H180V56.0001H0V12.0001H78.2131L90.2132 0L102.213 12.0001Z"/>
</mask>
<path fill-rule="evenodd" clip-rule="evenodd" d="M102.213 12.0001H180V56.0001H0V12.0001H78.2131L90.2132 0L102.213 12.0001Z" fill="#D4F6FF"/>
<path d="M102.213 12.0001L101.506 12.7072L101.799 13.0001H102.213V12.0001ZM180 12.0001H181V11.0001H180V12.0001ZM180 56.0001V57.0001H181V56.0001H180ZM0 56.0001H-1V57.0001H0V56.0001ZM0 12.0001V11.0001H-1V12.0001H0ZM78.2131 12.0001V13.0001H78.6273L78.9202 12.7072L78.2131 12.0001ZM90.2132 0L90.9203 -0.707107L90.2132 -1.41421L89.5061 -0.707107L90.2132 0ZM102.213 13.0001H180V11.0001H102.213V13.0001ZM179 12.0001V56.0001H181V12.0001H179ZM180 55.0001H0V57.0001H180V55.0001ZM1 56.0001V12.0001H-1V56.0001H1ZM0 13.0001H78.2131V11.0001H0V13.0001ZM78.9202 12.7072L90.9203 0.707107L89.5061 -0.707107L77.506 11.293L78.9202 12.7072ZM89.5061 0.707107L101.506 12.7072L102.92 11.293L90.9203 -0.707107L89.5061 0.707107Z" fill="#2879FF" mask="url(#path-1-inside-1_1_80)"/>
<path d="M32.3125 32.8193V33.6729C32.3125 34.6872 32.1857 35.5964 31.9321 36.4004C31.6785 37.2044 31.3136 37.8879 30.8374 38.4507C30.3612 39.0135 29.7891 39.4434 29.1211 39.7402C28.4593 40.0371 27.7171 40.1855 26.8945 40.1855C26.0967 40.1855 25.3638 40.0371 24.6958 39.7402C24.034 39.4434 23.4588 39.0135 22.9702 38.4507C22.4878 37.8879 22.1136 37.2044 21.8477 36.4004C21.5817 35.5964 21.4487 34.6872 21.4487 33.6729V32.8193C21.4487 31.805 21.5786 30.8989 21.8384 30.1011C22.1043 29.297 22.4785 28.6136 22.9609 28.0508C23.4434 27.4818 24.0155 27.0488 24.6772 26.752C25.3452 26.4551 26.0781 26.3066 26.876 26.3066C27.6986 26.3066 28.4408 26.4551 29.1025 26.752C29.7705 27.0488 30.3426 27.4818 30.8188 28.0508C31.3013 28.6136 31.6693 29.297 31.9229 30.1011C32.1826 30.8989 32.3125 31.805 32.3125 32.8193ZM30.5405 33.6729V32.8008C30.5405 31.9967 30.457 31.2855 30.29 30.667C30.1292 30.0485 29.8911 29.529 29.5757 29.1084C29.2603 28.6878 28.8737 28.3693 28.416 28.1528C27.9645 27.9364 27.4512 27.8281 26.876 27.8281C26.3193 27.8281 25.8153 27.9364 25.3638 28.1528C24.9185 28.3693 24.535 28.6878 24.2134 29.1084C23.8979 29.529 23.6536 30.0485 23.4805 30.667C23.3073 31.2855 23.2207 31.9967 23.2207 32.8008V33.6729C23.2207 34.4831 23.3073 35.2005 23.4805 35.8252C23.6536 36.4437 23.901 36.9663 24.2227 37.3931C24.5505 37.8136 24.937 38.1322 25.3823 38.3486C25.8338 38.5651 26.3379 38.6733 26.8945 38.6733C27.4759 38.6733 27.9924 38.5651 28.4438 38.3486C28.8953 38.1322 29.2757 37.8136 29.585 37.3931C29.9004 36.9663 30.1385 36.4437 30.2993 35.8252C30.4601 35.2005 30.5405 34.4831 30.5405 33.6729ZM42.3042 29.9619V40H40.5879V29.9619H42.3042ZM41.7197 34.5728V35.9829C41.3734 36.1128 41.0208 36.2303 40.6621 36.3354C40.3096 36.4344 39.9354 36.5148 39.5396 36.5767C39.1499 36.6323 38.7262 36.6602 38.2686 36.6602C37.4769 36.6602 36.7904 36.5241 36.209 36.252C35.6276 35.9736 35.1792 35.5562 34.8638 34.9995C34.5483 34.4367 34.3906 33.7285 34.3906 32.875V29.9434H36.1069V32.875C36.1069 33.4316 36.1904 33.8831 36.3574 34.2295C36.5244 34.5758 36.7687 34.8325 37.0903 34.9995C37.4119 35.1603 37.8047 35.2407 38.2686 35.2407C38.7139 35.2407 39.1313 35.2129 39.521 35.1572C39.9168 35.0954 40.2941 35.015 40.6528 34.916C41.0177 34.8171 41.3734 34.7026 41.7197 34.5728ZM46.9243 37.2817L51.5537 29.9619H53.2793V40H51.5537V32.6802L46.9243 40H45.2173V29.9619H46.9243V37.2817ZM60.0518 38.7754C60.46 38.7754 60.8372 38.6919 61.1836 38.5249C61.5299 38.3579 61.8145 38.1291 62.0371 37.8384C62.2598 37.5415 62.3866 37.2044 62.4175 36.8271H64.0503C64.0194 37.4209 63.8184 37.9744 63.4473 38.4878C63.0824 38.995 62.603 39.4062 62.0093 39.7217C61.4155 40.0309 60.763 40.1855 60.0518 40.1855C59.2972 40.1855 58.6385 40.0526 58.0757 39.7866C57.519 39.5207 57.0552 39.1558 56.6841 38.6919C56.3192 38.228 56.0439 37.6961 55.8584 37.0962C55.679 36.4901 55.5894 35.8499 55.5894 35.1758V34.7861C55.5894 34.112 55.679 33.4749 55.8584 32.875C56.0439 32.2689 56.3192 31.7339 56.6841 31.27C57.0552 30.8062 57.519 30.4412 58.0757 30.1753C58.6385 29.9093 59.2972 29.7764 60.0518 29.7764C60.8372 29.7764 61.5238 29.9372 62.1113 30.2588C62.6989 30.5742 63.1597 31.0072 63.4937 31.5576C63.8338 32.1019 64.0194 32.7204 64.0503 33.4131H62.4175C62.3866 32.9987 62.269 32.6245 62.0649 32.2905C61.867 31.9565 61.5949 31.6906 61.2485 31.4927C60.9084 31.2886 60.5094 31.1865 60.0518 31.1865C59.526 31.1865 59.0838 31.2917 58.7251 31.502C58.3726 31.7061 58.0911 31.9844 57.8809 32.3369C57.6768 32.6833 57.5283 33.0698 57.4355 33.4966C57.349 33.9172 57.3057 34.347 57.3057 34.7861V35.1758C57.3057 35.6149 57.349 36.0479 57.4355 36.4746C57.5221 36.9014 57.6675 37.2879 57.8716 37.6343C58.0819 37.9806 58.3633 38.259 58.7158 38.4692C59.0745 38.6733 59.5199 38.7754 60.0518 38.7754ZM70.0713 29.9619V40H68.3457V29.9619H70.0713ZM73.439 29.9619V31.3535H65.043V29.9619H73.439ZM76.9829 37.2817L81.6123 29.9619H83.3379V40H81.6123V32.6802L76.9829 40H75.2759V29.9619H76.9829V37.2817ZM90.1846 29.9619V40H88.459V29.9619H90.1846ZM93.5522 29.9619V31.3535H85.1562V29.9619H93.5522ZM96.6509 33.4131H99.666C100.476 33.4131 101.16 33.5553 101.716 33.8398C102.273 34.1182 102.694 34.5047 102.978 34.9995C103.269 35.4881 103.414 36.0448 103.414 36.6694C103.414 37.1333 103.334 37.5693 103.173 37.9775C103.012 38.3796 102.771 38.7321 102.449 39.0352C102.134 39.3382 101.741 39.5763 101.271 39.7495C100.807 39.9165 100.272 40 99.666 40H95.3984V29.9619H97.1147V38.5898H99.666C100.161 38.5898 100.557 38.5002 100.854 38.3208C101.15 38.1414 101.364 37.9095 101.494 37.625C101.624 37.3405 101.688 37.0436 101.688 36.7344C101.688 36.4313 101.624 36.1344 101.494 35.8438C101.364 35.5531 101.15 35.3118 100.854 35.1201C100.557 34.9222 100.161 34.8232 99.666 34.8232H96.6509V33.4131ZM116.959 29.9619V31.3813H111.884V29.9619H116.959ZM112.135 29.9619V40H110.418V29.9619H112.135ZM118.48 29.9619V40H116.755V29.9619H118.48ZM120.781 35.0923V34.8789C120.781 34.1553 120.886 33.4842 121.097 32.8657C121.307 32.241 121.61 31.6999 122.006 31.2422C122.402 30.7783 122.881 30.4196 123.444 30.166C124.007 29.9062 124.638 29.7764 125.336 29.7764C126.042 29.7764 126.675 29.9062 127.238 30.166C127.807 30.4196 128.29 30.7783 128.686 31.2422C129.088 31.6999 129.394 32.241 129.604 32.8657C129.814 33.4842 129.919 34.1553 129.919 34.8789V35.0923C129.919 35.8159 129.814 36.487 129.604 37.1055C129.394 37.724 129.088 38.2651 128.686 38.729C128.29 39.1867 127.81 39.5454 127.248 39.8052C126.691 40.0588 126.06 40.1855 125.355 40.1855C124.65 40.1855 124.016 40.0588 123.453 39.8052C122.89 39.5454 122.408 39.1867 122.006 38.729C121.61 38.2651 121.307 37.724 121.097 37.1055C120.886 36.487 120.781 35.8159 120.781 35.0923ZM122.498 34.8789V35.0923C122.498 35.5933 122.556 36.0664 122.674 36.5117C122.791 36.9508 122.968 37.3405 123.203 37.6807C123.444 38.0208 123.744 38.2899 124.103 38.4878C124.461 38.6795 124.879 38.7754 125.355 38.7754C125.825 38.7754 126.236 38.6795 126.589 38.4878C126.948 38.2899 127.244 38.0208 127.479 37.6807C127.715 37.3405 127.891 36.9508 128.008 36.5117C128.132 36.0664 128.194 35.5933 128.194 35.0923V34.8789C128.194 34.3841 128.132 33.9172 128.008 33.478C127.891 33.0327 127.711 32.64 127.47 32.2998C127.235 31.9535 126.938 31.6813 126.58 31.4834C126.227 31.2855 125.813 31.1865 125.336 31.1865C124.866 31.1865 124.452 31.2855 124.093 31.4834C123.741 31.6813 123.444 31.9535 123.203 32.2998C122.968 32.64 122.791 33.0327 122.674 33.478C122.556 33.9172 122.498 34.3841 122.498 34.8789ZM138.631 29.9619V31.3813H133.779V29.9619H138.631ZM140.143 29.9619V40H138.427V29.9619H140.143ZM133.361 29.9619H135.087L134.827 34.8047C134.784 35.5531 134.713 36.2148 134.614 36.79C134.521 37.359 134.391 37.8477 134.224 38.2559C134.063 38.6641 133.859 38.998 133.612 39.2578C133.371 39.5114 133.08 39.7 132.74 39.8237C132.4 39.9412 132.007 40 131.562 40H131.023V38.4878L131.395 38.46C131.66 38.4414 131.886 38.3796 132.072 38.2744C132.264 38.1693 132.424 38.0146 132.554 37.8105C132.684 37.6003 132.789 37.3312 132.87 37.0034C132.956 36.6756 133.021 36.286 133.064 35.8345C133.114 35.383 133.151 34.8573 133.176 34.2573L133.361 29.9619ZM147.073 40.1855C146.374 40.1855 145.74 40.068 145.171 39.833C144.609 39.5918 144.123 39.2547 143.715 38.8218C143.313 38.3888 143.004 37.8755 142.787 37.2817C142.571 36.688 142.462 36.0386 142.462 35.3335V34.9438C142.462 34.1274 142.583 33.4007 142.824 32.7637C143.065 32.1204 143.393 31.5762 143.808 31.1309C144.222 30.6855 144.692 30.3485 145.218 30.1196C145.743 29.8908 146.288 29.7764 146.851 29.7764C147.568 29.7764 148.187 29.9001 148.706 30.1475C149.232 30.3949 149.662 30.7412 149.996 31.1865C150.33 31.6257 150.577 32.1452 150.738 32.7451C150.899 33.3389 150.979 33.9883 150.979 34.6934V35.4634H143.483V34.0625H149.263V33.9326C149.238 33.4873 149.145 33.0544 148.984 32.6338C148.83 32.2132 148.582 31.8669 148.242 31.5947C147.902 31.3226 147.438 31.1865 146.851 31.1865C146.461 31.1865 146.102 31.27 145.774 31.437C145.447 31.5978 145.165 31.839 144.93 32.1606C144.695 32.4823 144.513 32.875 144.383 33.3389C144.253 33.8027 144.188 34.3377 144.188 34.9438V35.3335C144.188 35.8097 144.253 36.2581 144.383 36.6787C144.519 37.0931 144.714 37.458 144.967 37.7734C145.227 38.0889 145.539 38.3363 145.904 38.5156C146.275 38.695 146.696 38.7847 147.166 38.7847C147.772 38.7847 148.285 38.661 148.706 38.4136C149.127 38.1662 149.495 37.8353 149.81 37.4209L150.849 38.2466C150.633 38.5744 150.357 38.8867 150.023 39.1836C149.689 39.4805 149.278 39.7217 148.79 39.9072C148.307 40.0928 147.735 40.1855 147.073 40.1855ZM156.712 36.1963H154.987C154.993 35.6025 155.046 35.117 155.145 34.7397C155.25 34.3563 155.42 34.0068 155.655 33.6914C155.89 33.376 156.202 33.0173 156.592 32.6152C156.876 32.3245 157.136 32.0524 157.371 31.7988C157.612 31.5391 157.807 31.2607 157.956 30.9639C158.104 30.6608 158.178 30.299 158.178 29.8784C158.178 29.4517 158.101 29.0837 157.946 28.7744C157.798 28.4652 157.575 28.2271 157.278 28.0601C156.988 27.8931 156.626 27.8096 156.193 27.8096C155.834 27.8096 155.494 27.8745 155.172 28.0044C154.851 28.1343 154.591 28.3353 154.393 28.6074C154.195 28.8734 154.093 29.2228 154.087 29.6558H152.371C152.383 28.9569 152.556 28.3569 152.89 27.856C153.23 27.355 153.688 26.9715 154.263 26.7056C154.838 26.4396 155.482 26.3066 156.193 26.3066C156.978 26.3066 157.646 26.4489 158.197 26.7334C158.753 27.0179 159.177 27.4261 159.468 27.958C159.758 28.4837 159.904 29.1084 159.904 29.832C159.904 30.3887 159.789 30.902 159.561 31.3721C159.338 31.8359 159.05 32.272 158.698 32.6802C158.345 33.0884 157.971 33.478 157.575 33.8491C157.235 34.1646 157.006 34.5202 156.889 34.916C156.771 35.3118 156.712 35.7386 156.712 36.1963ZM154.913 39.1372C154.913 38.8589 154.999 38.6239 155.172 38.4321C155.346 38.2404 155.596 38.1445 155.924 38.1445C156.258 38.1445 156.511 38.2404 156.685 38.4321C156.858 38.6239 156.944 38.8589 156.944 39.1372C156.944 39.4032 156.858 39.632 156.685 39.8237C156.511 40.0155 156.258 40.1113 155.924 40.1113C155.596 40.1113 155.346 40.0155 155.172 39.8237C154.999 39.632 154.913 39.4032 154.913 39.1372Z" fill="#434C4E"/>
</svg>
